<svg xmlns="http://www.w3.org/2000/svg" viewBox="0 0 444.8 240.75"><defs><style>.cls-1{fill:#81cceb;}.cls-2{fill:none;}.cls-3{fill:#fff;}</style></defs><title>PW</title><g id="Layer_9_Image" data-name="Layer 9 Image"><rect x="204.05" width="240.75" height="240.75"/></g><g id="Layer_11_Image" data-name="Layer 11 Image"><path class="cls-1" d="M221,69l.24-1c.51.1.12.49.24.72Z" transform="translate(-38.45)"/><path class="cls-2" d="M202.94,202.2H38.45V37.8H202.94Zm-82.22-.2c45.53-.29,81.87-36.35,81.95-81.85A81.93,81.93,0,1,0,38.81,120C38.79,165.55,75.17,201.69,120.72,202Z" transform="translate(-38.45)"/><path d="M120.86,38.07a81.53,81.53,0,0,0-82,81.88c0,45.59,36.36,81.73,81.91,82,45.53-.29,81.87-36.35,81.95-81.85A81.53,81.53,0,0,0,120.86,38.07Zm-.23,159.64a77.71,77.71,0,1,1,77.82-77.65A77.71,77.71,0,0,1,120.63,197.71Z" transform="translate(-38.45)"/><path d="M75.14,85.1l10.24,17.33q13.86,23.43,27.72,46.86a.61.61,0,0,1,0,.79c-1.11,1.56-2.19,3.14-3.33,4.8L70,85.32l2.74-.12c.45,0,.89-.07,1.34-.1Z" transform="translate(-38.45)"/><path d="M171.54,86c-.15.22-.31.42-.44.65l-28,48.65-.33.55c-.1-.16-.17-.27-.24-.38-.92-1.6-1.83-3.21-2.76-4.81a.61.61,0,0,1,0-.72q13.09-21.83,26.16-43.67a.67.67,0,0,1,.67-.37c1.65,0,3.3,0,4.95,0Z" transform="translate(-38.45)"/><path d="M150.1,85.55l-18.33,30.88a1.88,1.88,0,0,1-.18-.21c-.89-1.48-1.77-3-2.68-4.45-.18-.29-.05-.46.07-.67l11.21-19.77.34-.61H100l2.12,3.56.11-.06-1.24-2.55.08,0,.3.49q16.61,28.41,33.23,56.82a1.12,1.12,0,0,1,0,1.41c-1,1.42-1.87,2.91-2.83,4.42L91.78,85.55Z" transform="translate(-38.45)"/><polygon points="95.92 148.65 61.17 88.93 58.95 90.25 94.23 148.65 95.92 148.65"/><path d="M75.72,166.69a1.59,1.59,0,0,1-1.16.47H73.42v3.35h-.34v-6.7h1.47a1.62,1.62,0,0,1,1.16.45,1.8,1.8,0,0,1,0,2.43Zm-.26-2.18a1.29,1.29,0,0,0-.91-.32H73.42v2.58h1.12a1.33,1.33,0,0,0,.93-.34,1.28,1.28,0,0,0,.37-1A1.22,1.22,0,0,0,75.45,164.51Z" transform="translate(-38.45)"/><path d="M80.22,170.5v-6.7h2.9v.38H80.56v2.44h2.55V167H80.56v3.08h2.55v.38Z" transform="translate(-38.45)"/><path d="M88.47,164.19v6.31h-.35v-6.31H86.79v-.38h3v.38Z" transform="translate(-38.45)"/><path d="M93.51,170.5v-6.7h2.9v.38H93.86v2.44h2.55V167H93.86v3.08h2.55v.38Z" transform="translate(-38.45)"/><path d="M103.23,170.5l-1.92-3.35h-.65v3.35h-.34v-6.7h1.39a1.91,1.91,0,0,1,.64.11,1.44,1.44,0,0,1,.52.32,1.55,1.55,0,0,1,.35.52,1.82,1.82,0,0,1,.13.71,2.12,2.12,0,0,1-.12.76,1.37,1.37,0,0,1-.35.53,1.4,1.4,0,0,1-.53.3,2.15,2.15,0,0,1-.67.1l1.93,3.35Zm-.32-5.6a1.06,1.06,0,0,0-.28-.39,1.21,1.21,0,0,0-.41-.23,1.58,1.58,0,0,0-.51-.08h-1v2.58h1.14a1.17,1.17,0,0,0,.87-.34,1.33,1.33,0,0,0,.33-1A1.42,1.42,0,0,0,102.91,164.9Z" transform="translate(-38.45)"/><path d="M117.57,170.6l-1.5-5.62-1.51,5.62-1.93-6.79H113l1.58,5.48,1.53-5.6,1.52,5.6,1.58-5.48h.35Z" transform="translate(-38.45)"/><path d="M123.59,170.5v-6.7h.34v6.7Z" transform="translate(-38.45)"/><path d="M127.88,170.5v-6.7h.34v6.31h1.7v.38Z" transform="translate(-38.45)"/><path d="M133.92,170.5v-6.7h.34v6.31H136v.38Z" transform="translate(-38.45)"/><path d="M143.84,170.5l-.69-2h-2.74l-.7,2h-.34l2.41-6.91,2.41,6.91Zm-2.07-5.94-1.23,3.55H143Z" transform="translate(-38.45)"/><path d="M148.65,164.19v6.31h-.35v-6.31H147v-.38h3v.38Z" transform="translate(-38.45)"/><path d="M158.22,169.63a3.07,3.07,0,0,1-4.47,0,4,4,0,0,1,0-5,2.87,2.87,0,0,1,2.24-1,2.9,2.9,0,0,1,2.24,1,4,4,0,0,1,0,5ZM158,165a2.71,2.71,0,0,0-4,0,3.52,3.52,0,0,0,0,4.4,2.55,2.55,0,0,0,2,.86,2.59,2.59,0,0,0,2-.84,3.56,3.56,0,0,0,0-4.42Z" transform="translate(-38.45)"/><path d="M163.59,164.82v5.68h-.34v-6.74l4.5,5.86v-5.81h.35v6.81Z" transform="translate(-38.45)"/><path class="cls-3" d="M363,38.07a81.53,81.53,0,0,0-82,81.88c0,45.59,36.36,81.73,81.91,82,45.53-.29,81.87-36.35,81.95-81.85A81.53,81.53,0,0,0,363,38.07Zm-.23,159.64a77.71,77.71,0,1,1,77.82-77.65A77.71,77.71,0,0,1,362.76,197.71Z" transform="translate(-38.45)"/><path class="cls-3" d="M317.27,85.1l10.24,17.33q13.86,23.43,27.72,46.86a.61.61,0,0,1,0,.79c-1.11,1.56-2.19,3.14-3.33,4.8L312.1,85.32l2.74-.12c.45,0,.89-.07,1.34-.1Z" transform="translate(-38.45)"/><path class="cls-3" d="M413.68,86c-.15.22-.31.42-.44.65l-28,48.65-.33.55c-.1-.16-.17-.27-.24-.38-.92-1.6-1.83-3.21-2.76-4.81a.61.61,0,0,1,0-.72Q395,108.11,408.06,86.27a.67.67,0,0,1,.67-.37c1.65,0,3.3,0,4.95,0Z" transform="translate(-38.45)"/><path class="cls-3" d="M392.23,85.55,373.9,116.43a1.88,1.88,0,0,1-.18-.21c-.89-1.48-1.77-3-2.68-4.45-.18-.29-.05-.46.07-.67l11.21-19.77.34-.61H342.08l2.12,3.56.11-.06-1.24-2.55.08,0,.3.49q16.61,28.41,33.23,56.82a1.12,1.12,0,0,1,0,1.41c-1,1.42-1.87,2.91-2.83,4.42l-39.9-69.23Z" transform="translate(-38.45)"/><polygon class="cls-3" points="338.05 148.65 303.31 88.93 301.08 90.25 336.36 148.65 338.05 148.65"/><path class="cls-3" d="M317.85,166.69a1.59,1.59,0,0,1-1.16.47h-1.13v3.35h-.34v-6.7h1.47a1.62,1.62,0,0,1,1.16.45,1.8,1.8,0,0,1,0,2.43Zm-.26-2.18a1.29,1.29,0,0,0-.91-.32h-1.12v2.58h1.12a1.33,1.33,0,0,0,.93-.34,1.28,1.28,0,0,0,.37-1A1.22,1.22,0,0,0,317.59,164.51Z" transform="translate(-38.45)"/><path class="cls-3" d="M322.35,170.5v-6.7h2.9v.38h-2.55v2.44h2.55V167h-2.55v3.08h2.55v.38Z" transform="translate(-38.45)"/><path class="cls-3" d="M330.6,164.19v6.31h-.35v-6.31h-1.33v-.38h3v.38Z" transform="translate(-38.45)"/><path class="cls-3" d="M335.64,170.5v-6.7h2.9v.38H336v2.44h2.55V167H336v3.08h2.55v.38Z" transform="translate(-38.45)"/><path class="cls-3" d="M345.37,170.5l-1.92-3.35h-.65v3.35h-.34v-6.7h1.39a1.91,1.91,0,0,1,.64.11,1.44,1.44,0,0,1,.52.32,1.55,1.55,0,0,1,.35.52,1.82,1.82,0,0,1,.13.71,2.12,2.12,0,0,1-.12.76,1.37,1.37,0,0,1-.35.53,1.4,1.4,0,0,1-.53.3,2.15,2.15,0,0,1-.67.1l1.93,3.35Zm-.32-5.6a1.06,1.06,0,0,0-.28-.39,1.21,1.21,0,0,0-.41-.23,1.58,1.58,0,0,0-.51-.08h-1v2.58h1.14a1.17,1.17,0,0,0,.87-.34,1.33,1.33,0,0,0,.33-1A1.42,1.42,0,0,0,345,164.9Z" transform="translate(-38.45)"/><path class="cls-3" d="M359.71,170.6,358.2,165l-1.51,5.62-1.93-6.79h.34l1.58,5.48,1.53-5.6,1.52,5.6,1.58-5.48h.35Z" transform="translate(-38.45)"/><path class="cls-3" d="M365.72,170.5v-6.7h.34v6.7Z" transform="translate(-38.45)"/><path class="cls-3" d="M370,170.5v-6.7h.34v6.31H372v.38Z" transform="translate(-38.45)"/><path class="cls-3" d="M376.06,170.5v-6.7h.34v6.31h1.7v.38Z" transform="translate(-38.45)"/><path class="cls-3" d="M386,170.5l-.69-2h-2.74l-.7,2h-.34l2.41-6.91,2.41,6.91Zm-2.07-5.94-1.23,3.55h2.46Z" transform="translate(-38.45)"/><path class="cls-3" d="M390.78,164.19v6.31h-.35v-6.31H389.1v-.38h3v.38Z" transform="translate(-38.45)"/><path class="cls-3" d="M400.35,169.63a3.07,3.07,0,0,1-4.47,0,4,4,0,0,1,0-5,2.87,2.87,0,0,1,2.24-1,2.9,2.9,0,0,1,2.24,1,4,4,0,0,1,0,5ZM400.1,165a2.71,2.71,0,0,0-4,0,3.52,3.52,0,0,0,0,4.4,2.55,2.55,0,0,0,2,.86,2.59,2.59,0,0,0,2-.84,3.56,3.56,0,0,0,0-4.42Z" transform="translate(-38.45)"/><path class="cls-3" d="M405.73,164.82v5.68h-.34v-6.74l4.5,5.86v-5.81h.35v6.81Z" transform="translate(-38.45)"/></g></svg>