<?xml version="1.0" encoding="utf-8"?>
<!-- Generator: Adobe Illustrator 21.0.2, SVG Export Plug-In . SVG Version: 6.00 Build 0)  -->
<svg version="1.1" id="Layer_1" xmlns="http://www.w3.org/2000/svg" xmlns:xlink="http://www.w3.org/1999/xlink" x="0px" y="0px"
	 viewBox="0 0 239 240.8" style="enable-background:new 0 0 239 240.8;" xml:space="preserve">
<style type="text/css">
	.st0{fill:#81CCEB;}
	.st1{fill:none;}
</style>
<title>PW</title>
<path class="st0" d="M220.6,69l0.2-1c0.5,0.1,0.1,0.5,0.2,0.7L220.6,69z"/>
<path class="st1" d="M202.5,202.2H38V37.8h164.5V202.2z M120.3,202c45.5-0.3,81.9-36.4,81.9-81.8c0-45.2-36.6-82-81.9-82
	s-82,36.6-82,81.9l0,0C38.3,165.6,74.7,201.7,120.3,202z"/>
<path d="M120.4,38.1c-45-0.3-81.7,36-82,81.1c0,0.3,0,0.5,0,0.8c0,45.6,36.4,81.7,81.9,82c45.5-0.3,81.9-36.3,81.9-81.8
	c0.3-45-36-81.8-81-82C121,38.1,120.7,38.1,120.4,38.1z M120.2,197.7c-42.9-0.1-77.7-34.9-77.6-77.8s34.9-77.7,77.8-77.6
	c42.9,0.1,77.6,34.9,77.6,77.8C198,163,163.1,197.7,120.2,197.7C120.2,197.7,120.2,197.7,120.2,197.7L120.2,197.7z"/>
<path d="M74.7,85.1l10.2,17.3c9.2,15.6,18.5,31.2,27.7,46.9c0.2,0.2,0.2,0.6,0,0.8c-1.1,1.6-2.2,3.1-3.3,4.8L69.6,85.3l2.7-0.1
	c0.4,0,0.9-0.1,1.3-0.1H74.7z"/>
<path d="M171.1,86c-0.1,0.2-0.3,0.4-0.4,0.7l-28,48.7l-0.3,0.6c-0.1-0.2-0.2-0.3-0.2-0.4c-0.9-1.6-1.8-3.2-2.8-4.8
	c-0.2-0.2-0.2-0.5,0-0.7c8.7-14.6,17.4-29.1,26.2-43.7c0.1-0.3,0.4-0.4,0.7-0.4C167.8,85.9,169.4,85.9,171.1,86L171.1,86z"/>
<path d="M149.7,85.6l-18.3,30.9c-0.1-0.1-0.1-0.1-0.2-0.2c-0.9-1.5-1.8-3-2.7-4.4c-0.2-0.3-0.1-0.5,0.1-0.7l11.2-19.8l0.3-0.6H99.6
	l2.1,3.6l0.1-0.1l-1.2-2.6h0.1l0.3,0.5c11.1,18.9,22.1,37.9,33.2,56.8c0.3,0.4,0.3,1,0,1.4c-1,1.4-1.9,2.9-2.8,4.4l-40-69.3H149.7z"
	/>
<polygon points="133.9,148.6 99.2,88.9 96.9,90.3 132.2,148.6 "/>
<path d="M75.3,166.7c-0.3,0.3-0.7,0.5-1.2,0.5H73v3.4h-0.3v-6.7h1.5c0.4,0,0.8,0.2,1.2,0.4C75.9,164.9,75.9,166,75.3,166.7
	L75.3,166.7z M75,164.5c-0.3-0.2-0.6-0.3-0.9-0.3H73v2.6h1.1c0.3,0,0.7-0.1,0.9-0.3c0.3-0.3,0.4-0.6,0.4-1
	C75.4,165.1,75.3,164.7,75,164.5L75,164.5z"/>
<path d="M79.8,170.5v-6.7h2.9v0.4h-2.6v2.4h2.6v0.4h-2.6v3.1h2.6v0.4L79.8,170.5z"/>
<path d="M88,164.2v6.3h-0.4v-6.3h-1.3v-0.4h3v0.4H88z"/>
<path d="M93.1,170.5v-6.7H96v0.4h-2.6v2.4H96v0.4h-2.6v3.1H96v0.4L93.1,170.5z"/>
<path d="M102.8,170.5l-1.9-3.4h-0.6v3.4h-0.3v-6.7h1.4c0.2,0,0.4,0,0.6,0.1c0.2,0.1,0.4,0.2,0.5,0.3c0.2,0.1,0.3,0.3,0.4,0.5
	c0.1,0.2,0.1,0.5,0.1,0.7c0,0.3,0,0.5-0.1,0.8c-0.1,0.2-0.2,0.4-0.4,0.5c-0.2,0.1-0.3,0.2-0.5,0.3c-0.2,0.1-0.4,0.1-0.7,0.1l1.9,3.4
	L102.8,170.5z M102.5,164.9c-0.1-0.1-0.2-0.3-0.3-0.4c-0.1-0.1-0.3-0.2-0.4-0.2c-0.2-0.1-0.3-0.1-0.5-0.1h-1v2.6h1.1
	c0.3,0,0.6-0.1,0.9-0.3c0.2-0.3,0.4-0.6,0.3-1C102.6,165.3,102.5,165.1,102.5,164.9z"/>
<path d="M117.1,170.6l-1.5-5.6l-1.5,5.6l-1.9-6.8h0.4l1.6,5.5l1.5-5.6l1.5,5.6l1.6-5.5h0.4L117.1,170.6z"/>
<path d="M123.1,170.5v-6.7h0.3v6.7H123.1z"/>
<path d="M127.4,170.5v-6.7h0.3v6.3h1.7v0.4L127.4,170.5z"/>
<path d="M133.5,170.5v-6.7h0.3v6.3h1.7v0.4L133.5,170.5z"/>
<path d="M143.4,170.5l-0.7-2H140l-0.7,2h-0.3l2.4-6.9l2.4,6.9H143.4z M141.3,164.6l-1.2,3.6h2.5L141.3,164.6z"/>
<path d="M148.2,164.2v6.3h-0.4v-6.3h-1.3v-0.4h3v0.4H148.2z"/>
<path d="M157.8,169.6c-1.2,1.2-3.1,1.3-4.3,0.1c0,0-0.1-0.1-0.1-0.1c-1.2-1.5-1.2-3.5,0-5c0.6-0.7,1.4-1,2.2-1c0.9,0,1.7,0.4,2.2,1
	C159,166.1,159,168.2,157.8,169.6L157.8,169.6z M157.6,165c-1-1.1-2.7-1.2-3.8-0.2c-0.1,0.1-0.1,0.1-0.2,0.2c-1,1.3-1,3.1,0,4.4
	c0.5,0.6,1.2,0.9,2,0.9c0.8,0,1.5-0.3,2-0.8C158.6,168.1,158.6,166.3,157.6,165z"/>
<path d="M163.1,164.8v5.7h-0.3v-6.7l4.5,5.9v-5.8h0.4v6.8L163.1,164.8z"/>
</svg>
