<?xml version="1.0" encoding="utf-8"?>
<!-- Generator: Adobe Illustrator 21.0.2, SVG Export Plug-In . SVG Version: 6.00 Build 0)  -->
<svg version="1.1" id="Layer_1" xmlns="http://www.w3.org/2000/svg" xmlns:xlink="http://www.w3.org/1999/xlink" x="0px" y="0px"
	 viewBox="0 0 240.7 240.8" style="enable-background:new 0 0 240.7 240.8;" xml:space="preserve">
<style type="text/css">
	.st0{fill:#FFFFFF;}
</style>
<title>PW</title>
<rect width="240.7" height="240.8"/>
<path class="st0" d="M120.5,38.1c-45-0.3-81.7,36-82,81.1c0,0.3,0,0.5,0,0.8c0,45.6,36.4,81.7,81.9,82c45.5-0.3,81.9-36.3,81.9-81.8
	c0.3-45-36-81.8-81-82C121.1,38.1,120.8,38.1,120.5,38.1z M120.3,197.7c-42.9-0.1-77.7-34.9-77.6-77.8s34.9-77.7,77.8-77.6
	c42.9,0.1,77.6,34.9,77.6,77.8C198.1,163,163.2,197.7,120.3,197.7C120.3,197.7,120.3,197.7,120.3,197.7L120.3,197.7z"/>
<path class="st0" d="M74.8,85.1L85,102.4c9.2,15.6,18.5,31.2,27.7,46.9c0.2,0.2,0.2,0.6,0,0.8c-1.1,1.6-2.2,3.1-3.3,4.8L69.6,85.3
	l2.7-0.1c0.5,0,0.9-0.1,1.3-0.1H74.8z"/>
<path class="st0" d="M171.2,86c-0.1,0.2-0.3,0.4-0.4,0.7l-28,48.7l-0.3,0.6c-0.1-0.2-0.2-0.3-0.2-0.4c-0.9-1.6-1.8-3.2-2.8-4.8
	c-0.2-0.2-0.2-0.5,0-0.7c8.7-14.6,17.4-29.1,26.1-43.7c0.1-0.3,0.4-0.4,0.7-0.4c1.6,0,3.3,0,5,0L171.2,86z"/>
<path class="st0" d="M149.7,85.6l-18.3,30.9c-0.1-0.1-0.1-0.1-0.2-0.2c-0.9-1.5-1.8-3-2.7-4.4c-0.2-0.3,0-0.5,0.1-0.7l11.2-19.8
	l0.3-0.6H99.6l2.1,3.6l0.1-0.1l-1.2-2.6h0.1l0.3,0.5c11.1,18.9,22.1,37.9,33.2,56.8c0.3,0.4,0.3,1,0,1.4c-1,1.4-1.9,2.9-2.8,4.4
	L91.4,85.6L149.7,85.6z"/>
<polygon class="st0" points="134,148.6 99.3,88.9 97,90.3 132.3,148.6 "/>
<path class="st0" d="M75.4,166.7c-0.3,0.3-0.7,0.5-1.2,0.5h-1.1v3.4h-0.3v-6.7h1.5c0.4,0,0.8,0.2,1.2,0.4
	C76,164.9,76,166,75.4,166.7z M75.1,164.5c-0.3-0.2-0.6-0.3-0.9-0.3h-1.1v2.6h1.1c0.3,0,0.7-0.1,0.9-0.3c0.3-0.3,0.4-0.6,0.4-1
	C75.5,165.1,75.3,164.7,75.1,164.5L75.1,164.5z"/>
<path class="st0" d="M79.9,170.5v-6.7h2.9v0.4h-2.5v2.4h2.5v0.4h-2.5v3.1h2.5v0.4L79.9,170.5z"/>
<path class="st0" d="M88.1,164.2v6.3h-0.4v-6.3h-1.3v-0.4h3v0.4H88.1z"/>
<path class="st0" d="M93.1,170.5v-6.7H96v0.4h-2.5v2.4H96v0.4h-2.5v3.1H96v0.4L93.1,170.5z"/>
<path class="st0" d="M102.9,170.5l-1.9-3.4h-0.6v3.4H100v-6.7h1.4c0.2,0,0.4,0,0.6,0.1c0.2,0.1,0.4,0.2,0.5,0.3
	c0.2,0.1,0.3,0.3,0.4,0.5c0.1,0.2,0.1,0.5,0.1,0.7c0,0.3,0,0.5-0.1,0.8c-0.1,0.2-0.2,0.4-0.4,0.5c-0.2,0.1-0.3,0.2-0.5,0.3
	c-0.2,0.1-0.4,0.1-0.7,0.1l1.9,3.4L102.9,170.5z M102.5,164.9c-0.1-0.1-0.2-0.3-0.3-0.4c-0.1-0.1-0.3-0.2-0.4-0.2
	c-0.2-0.1-0.3-0.1-0.5-0.1h-1v2.6h1.1c0.3,0,0.6-0.1,0.9-0.3c0.2-0.3,0.4-0.6,0.3-1C102.7,165.2,102.6,165.1,102.5,164.9
	L102.5,164.9z"/>
<path class="st0" d="M117.2,170.6l-1.5-5.6l-1.5,5.6l-1.9-6.8h0.3l1.6,5.5l1.5-5.6l1.5,5.6l1.6-5.5h0.4L117.2,170.6z"/>
<path class="st0" d="M123.2,170.5v-6.7h0.3v6.7H123.2z"/>
<path class="st0" d="M127.5,170.5v-6.7h0.3v6.3h1.7v0.4L127.5,170.5z"/>
<path class="st0" d="M133.6,170.5v-6.7h0.3v6.3h1.7v0.4L133.6,170.5z"/>
<path class="st0" d="M143.5,170.5l-0.7-2h-2.7l-0.7,2H139l2.4-6.9l2.4,6.9H143.5z M141.4,164.6l-1.2,3.6h2.5L141.4,164.6z"/>
<path class="st0" d="M148.3,164.2v6.3h-0.4v-6.3h-1.3v-0.4h3v0.4H148.3z"/>
<path class="st0" d="M157.9,169.6c-1.2,1.2-3.1,1.3-4.3,0.1c0,0-0.1-0.1-0.1-0.1c-1.2-1.5-1.2-3.5,0-5c0.6-0.7,1.4-1,2.2-1
	c0.9,0,1.7,0.4,2.2,1C159,166.1,159,168.2,157.9,169.6L157.9,169.6z M157.6,165c-1-1.1-2.7-1.2-3.8-0.2c-0.1,0.1-0.1,0.1-0.2,0.2
	c-1,1.3-1,3.1,0,4.4c0.5,0.6,1.2,0.9,2,0.9c0.8,0,1.5-0.3,2-0.8C158.6,168.1,158.6,166.3,157.6,165z"/>
<path class="st0" d="M163.2,164.8v5.7h-0.3v-6.7l4.5,5.9v-5.8h0.4v6.8L163.2,164.8z"/>
</svg>
